HIERARCHY
ROOT root
{
	OFFSET 0.000000 0.000000 0.000000
	CHANNELS 6 Xposition Yposition Zposition Zrotation Yrotation Xrotation
	JOINT lhip
	{
		OFFSET 0.058581 -0.082280 -0.017664
		CHANNELS 3 Zrotation Yrotation Xrotation
		JOINT lknee
		{
			OFFSET 0.043451 -0.386469 0.008037
			CHANNELS 3 Zrotation Yrotation Xrotation
			JOINT lankle
			{
				OFFSET -0.014790 -0.426874 -0.037428
				CHANNELS 3 Zrotation Yrotation Xrotation
				JOINT ltoe
				{
					OFFSET 0.041054 -0.060286 0.122042
					CHANNELS 3 Zrotation Yrotation Xrotation
					End Site
					{
						OFFSET 0.000000 0.000000 0.000000
					}
				}
			}
		}
	}
	JOINT rhip
	{
		OFFSET -0.060310 -0.090513 -0.013543
		CHANNELS 3 Zrotation Yrotation Xrotation
		JOINT rknee
		{
			OFFSET -0.043257 -0.383688 -0.004843
			CHANNELS 3 Zrotation Yrotation Xrotation
			JOINT rankle
			{
				OFFSET 0.019056 -0.420046 -0.034562
				CHANNELS 3 Zrotation Yrotation Xrotation
				JOINT rtoe
				{
					OFFSET -0.034840 -0.062106 0.130323
					CHANNELS 3 Zrotation Yrotation Xrotation
					End Site
					{
						OFFSET 0.000000 0.000000 0.000000
					}
				}
			}
		}
	}
	JOINT lowerback
	{
		OFFSET 0.004439 0.124404 -0.038385
		CHANNELS 3 Zrotation Yrotation Xrotation
		JOINT upperback
		{
			OFFSET 0.004488 0.137956 0.026820
			CHANNELS 3 Zrotation Yrotation Xrotation
			JOINT chest
			{
				OFFSET -0.002265 0.056032 0.002855
				CHANNELS 3 Zrotation Yrotation Xrotation
				JOINT lowerneck
				{
					OFFSET -0.013390 0.211636 -0.033468
					CHANNELS 3 Zrotation Yrotation Xrotation
					JOINT upperneck
					{
						OFFSET 0.010113 0.088937 0.050410
						CHANNELS 3 Zrotation Yrotation Xrotation
						End Site
						{
							OFFSET 0.000000 0.000000 0.000000
						}
					}
				}
				JOINT lclavicle
				{
					OFFSET 0.071702 0.114000 -0.018898
					CHANNELS 3 Zrotation Yrotation Xrotation
					JOINT lshoulder
					{
						OFFSET 0.122921 0.045205 -0.019046
						CHANNELS 3 Zrotation Yrotation Xrotation
						JOINT lelbow
						{
							OFFSET 0.255332 -0.015649 -0.022946
							CHANNELS 3 Zrotation Yrotation Xrotation
							JOINT lwrist
							{
								OFFSET 0.265709 0.012698 -0.007375
								CHANNELS 3 Zrotation Yrotation Xrotation
								End Site
								{
									OFFSET 0.000000 0.000000 0.000000
								}
							}
						}
					}
				}
				JOINT rclavicle
				{
					OFFSET -0.082954 0.112472 -0.023707
					CHANNELS 3 Zrotation Yrotation Xrotation
					JOINT rshoulder
					{
						OFFSET -0.113228 0.046853 -0.008472
						CHANNELS 3 Zrotation Yrotation Xrotation
						JOINT relbow
						{
							OFFSET -0.260127 -0.014369 -0.031269
							CHANNELS 3 Zrotation Yrotation Xrotation
							JOINT rwrist
							{
								OFFSET -0.269108 0.006794 -0.006027
								CHANNELS 3 Zrotation Yrotation Xrotation
								End Site
								{
									OFFSET 0.000000 0.000000 0.000000
								}
							}
						}
					}
				}
			}
		}
	}
}
MOTION
Frames: 5
Frame Time: 0.033333
0.461204 0.179218 0.990749 87.633469 2.400429 95.821280 4.506781 2.160361 -1.649921 2.803687 0.555067 -6.070311 0.003389 6.936684 -4.538355 0.000000 -0.000000 0.000000 -2.432150 -0.628562 -5.395011 -0.877987 0.289282 0.311525 6.509480 -1.988270 -3.843314 0.000000 -0.000000 0.000000 -2.004049 2.906254 -3.364731 3.296811 -2.621866 4.238478 0.102884 2.836112 -9.954573 -0.038658 0.805697 0.718767 4.825597 4.377889 2.347267 -17.077142 -6.982902 -5.630197 -59.075365 -19.870287 32.476563 118.957365 -81.214654 -96.475901 12.781532 -4.886240 -13.986576 19.674829 11.306137 -3.548878 48.341392 27.384996 24.964305 -160.434394 83.988560 -152.313289 -17.183520 0.062059 -24.966516 
0.460977 0.178913 0.990666 87.964689 2.412454 95.861148 4.568417 2.035492 -1.774238 2.811423 0.513661 -6.063025 0.056948 6.753973 -4.414099 0.000000 -0.000000 0.000000 -2.383507 -0.623479 -5.400199 -0.888624 0.051431 0.344459 6.487741 -2.053661 -3.879874 0.000000 -0.000000 0.000000 -2.088460 2.856166 -3.216463 3.385187 -2.626442 4.146085 0.125334 2.705073 -9.781785 -0.025873 0.923515 0.501217 4.794822 4.179603 1.598524 -16.745156 -6.691692 -5.625680 -59.195583 -19.733137 32.575616 118.649860 -80.920974 -95.694309 13.518479 -4.469486 -13.955657 19.516506 10.782038 -3.979278 49.997991 26.895384 25.505349 -158.144357 82.550460 -149.809806 -17.405489 -0.518496 -26.252651 
0.460826 0.178809 0.990624 88.165433 2.398447 95.930247 4.580053 1.919986 -1.891042 2.800152 0.501233 -6.090320 0.107227 6.695020 -4.330515 0.000000 -0.000000 0.000000 -2.395223 -0.657084 -5.431358 -0.863523 -0.068953 0.305779 6.464265 -2.117273 -3.854224 0.000000 -0.000000 0.000000 -2.085761 2.796291 -3.164842 3.409454 -2.679360 4.063496 0.140002 2.486073 -9.585466 0.072617 1.082641 0.256202 4.628393 4.125106 1.164579 -16.402071 -6.192757 -5.751854 -59.360122 -19.366904 32.661519 119.094460 -80.629346 -96.078783 14.265993 -3.758311 -13.846921 19.212247 10.366830 -4.278720 51.377690 26.745952 26.415841 -160.128524 81.880112 -152.401260 -17.221077 -1.498694 -28.302087 
0.460751 0.178651 0.990627 88.160036 2.388028 95.943050 4.575390 1.948220 -1.936242 2.788437 0.341008 -6.043482 0.076308 6.838591 -4.305515 0.000000 -0.000000 0.000000 -2.385960 -0.695979 -5.466633 -0.887074 0.012808 0.326022 6.466053 -2.176994 -3.824442 0.000000 -0.000000 0.000000 -2.079096 2.768152 -3.242042 3.374493 -2.668883 4.029079 0.177889 2.339286 -9.198765 0.155655 1.250329 0.546550 4.667137 4.453427 0.195120 -16.147095 -5.771219 -5.968440 -59.763375 -18.966441 32.497500 121.055802 -80.462953 -98.077302 15.731460 -2.717412 -13.343044 18.966021 10.230810 -4.286625 51.950047 26.855349 26.978345 -168.584829 81.989120 -161.138915 -18.084636 -2.752350 -28.445158 
0.460682 0.178634 0.990636 87.986553 2.415545 95.860376 4.594909 2.039829 -1.809298 2.778790 0.251150 -6.088954 0.035864 7.026630 -4.306576 0.000000 -0.000000 0.000000 -2.333958 -0.678238 -5.430546 -0.933828 0.176777 0.333962 6.480987 -2.208292 -3.812504 0.000000 -0.000000 0.000000 -1.964492 2.687654 -3.145465 3.242703 -2.556842 4.031167 0.188466 2.463916 -8.868384 0.304596 1.089336 0.535878 4.621577 4.561476 -0.908312 -16.003561 -5.483199 -6.211188 -60.551530 -18.411109 32.486778 124.708186 -79.910998 -100.996455 17.840767 -1.623287 -11.804283 18.587498 10.320612 -4.338822 52.352585 26.832793 27.500722 -177.226463 82.457221 -169.208268 -18.720475 -3.222326 -28.366230 
